<?xml version="1.0" encoding="UTF-8" standalone="no"?>
<!-- Created with Inkscape (http://www.inkscape.org/) -->

<svg
   width="83.663193mm"
   height="112.31509mm"
   viewBox="0 0 83.663195 112.31511"
   version="1.1"
   id="svg2320"
   inkscape:version="1.1.2 (0a00cf5339, 2022-02-04)"
   sodipodi:docname="gopher-splash.svg"
   inkscape:export-filename="/home/alex/Dropbox/Work/alexedwards.net/cmd/lets-go/ui/static/img/gopher-splash.1.20.png"
   inkscape:export-xdpi="85.110001"
   inkscape:export-ydpi="85.110001"
   xmlns:inkscape="http://www.inkscape.org/namespaces/inkscape"
   xmlns:sodipodi="http://sodipodi.sourceforge.net/DTD/sodipodi-0.dtd"
   xmlns="http://www.w3.org/2000/svg"
   xmlns:svg="http://www.w3.org/2000/svg"
   xmlns:rdf="http://www.w3.org/1999/02/22-rdf-syntax-ns#"
   xmlns:cc="http://creativecommons.org/ns#"
   xmlns:dc="http://purl.org/dc/elements/1.1/">
  <defs
     id="defs2314" />
  <sodipodi:namedview
     id="base"
     pagecolor="#ffffff"
     bordercolor="#666666"
     borderopacity="1.0"
     inkscape:pageopacity="0.0"
     inkscape:pageshadow="2"
     inkscape:zoom="0.7"
     inkscape:cx="206.42857"
     inkscape:cy="287.85714"
     inkscape:document-units="mm"
     inkscape:current-layer="layer1"
     showgrid="false"
     fit-margin-top="0"
     fit-margin-left="0"
     fit-margin-right="0"
     fit-margin-bottom="0"
     inkscape:window-width="1920"
     inkscape:window-height="1072"
     inkscape:window-x="0"
     inkscape:window-y="27"
     inkscape:window-maximized="1"
     inkscape:pagecheckerboard="0" />
  <metadata
     id="metadata2317">
    <rdf:RDF>
      <cc:Work
         rdf:about="">
        <dc:format>image/svg+xml</dc:format>
        <dc:type
           rdf:resource="http://purl.org/dc/dcmitype/StillImage" />
      </cc:Work>
    </rdf:RDF>
  </metadata>
  <g
     inkscape:label="Layer 1"
     inkscape:groupmode="layer"
     id="layer1"
     transform="translate(-13.614993,-73.564782)">
    <g
       id="g1249"
       transform="matrix(0.69631878,-0.18008027,0.18008027,0.69631878,-131.60097,-45.781163)"
       inkscape:export-filename="/home/alex/text877-3-2.png"
       inkscape:export-xdpi="135.72"
       inkscape:export-ydpi="135.72">
      <path
         style="color:#000000;clip-rule:nonzero;display:inline;overflow:visible;opacity:1;isolation:auto;mix-blend-mode:normal;color-interpolation:sRGB;color-interpolation-filters:linearRGB;solid-color:#000000;solid-opacity:1;fill:#ccb49f;fill-opacity:1;fill-rule:nonzero;stroke:none;stroke-width:1.15791;stroke-linecap:butt;stroke-linejoin:miter;stroke-miterlimit:4;stroke-dasharray:none;stroke-dashoffset:0;stroke-opacity:1;color-rendering:auto;image-rendering:auto;shape-rendering:auto;text-rendering:auto;enable-background:accumulate"
         d="m 166.92313,244.01183 c 0.0125,1.30589 -0.44982,2.49432 -1.15365,3.48146 -0.70383,0.98718 -1.62552,1.77692 -2.60407,2.34816 -0.97856,0.5712 -2.02514,0.92771 -3.16773,1.0183 -1.14261,0.0906 -2.54382,0.0759 -3.73413,-0.43252 -1.19031,-0.50847 -1.89591,-1.45325 -2.43914,-2.40112 -0.5432,-0.94786 -1.08782,-2.09001 -2.13794,-3.28065 -1.05009,-1.19061 -2.05425,-2.39665 -2.36191,-3.4931 -0.30765,-1.09649 -0.42649,-2.18233 -0.32582,-3.21718 0.1007,-1.03488 0.41099,-1.92377 0.88674,-2.6712 0.47576,-0.74743 1.11697,-1.35324 1.88578,-1.80468 0.76882,-0.45145 1.66519,-0.74846 2.65655,-0.86259 0.99138,-0.11412 2.07732,-0.0454 3.23477,0.25023 1.15745,0.29541 2.27927,0.79096 3.32784,1.45161 1.04858,0.6606 2.02479,1.48645 2.86289,2.43338 0.83809,0.947 1.53631,2.01486 2.00686,3.14972 0.47053,1.13487 1.05045,2.72429 1.06296,4.03018 z"
         id="path4874-9"
         inkscape:connector-curvature="0"
         sodipodi:nodetypes="sssssssssssssssss" />
      <path
         style="color:#000000;clip-rule:nonzero;display:inline;overflow:visible;opacity:1;isolation:auto;mix-blend-mode:normal;color-interpolation:sRGB;color-interpolation-filters:linearRGB;solid-color:#000000;solid-opacity:1;fill:#ccb49f;fill-opacity:1;fill-rule:nonzero;stroke:#000000;stroke-width:1.01617;stroke-linecap:butt;stroke-linejoin:miter;stroke-miterlimit:4;stroke-dasharray:none;stroke-dashoffset:0;stroke-opacity:1;color-rendering:auto;image-rendering:auto;shape-rendering:auto;text-rendering:auto;enable-background:accumulate"
         d="m 156.24046,232.10466 c -0.91538,-0.13414 -1.78573,-0.13757 -2.60047,-0.0308 -1.08636,0.14237 -2.07212,0.48143 -2.92132,0.98465 -0.8492,0.50321 -1.56175,1.16889 -2.09488,1.98655 -0.53316,0.81767 -0.8861,1.78515 -1.01385,2.90748 -0.12773,1.12234 -0.0186,2.29909 0.29958,3.48323 0.31818,1.18417 1.17828,2.45963 2.34804,3.71769 1.16974,1.2581 1.78672,2.48596 2.37389,3.49334 0.58519,1.00392 0.32876,0.73231 1.74357,1.1016 0.16307,0.0421 0.29423,-0.44768 0.1583,-0.51206 -1.19715,-0.55195 -0.56983,-0.55957 -1.18369,-1.36372 -0.53186,-0.92452 -1.06467,-2.03858 -2.09221,-3.19989 -1.0275,-1.16124 -2.00998,-2.33792 -2.3126,-3.40734 -0.30258,-1.06949 -0.42167,-2.12946 -0.3252,-3.13895 0.0963,-1.00942 0.39914,-1.87529 0.86332,-2.60445 0.46413,-0.72916 1.09017,-1.32199 1.84202,-1.76254 0.75188,-0.44055 1.62773,-0.72994 2.59815,-0.84154 0.4852,-0.0557 0.9957,-0.0664 1.52442,-0.0279 0.52875,0.0389 1.0778,0.12672 1.64435,0.27019 1.13292,0.28803 2.22876,0.77139 3.2539,1.41573 1.02514,0.6443 1.98007,1.45128 2.79809,2.37502 0.81801,0.92378 1.4983,1.9644 1.95742,3.07154 0.45912,1.1071 1.02603,2.65667 1.04047,3.93041 0.0119,1.04603 0.29307,1.12479 -0.30669,2.10238 -0.11181,0.18201 0.86094,0.37212 1.16455,-0.0619 0.56617,-0.81025 0.15499,-0.89868 0.11696,-1.90461 -0.0514,-1.36021 -0.55309,-3.07057 -1.06204,-4.29741 -0.50898,-1.22685 -1.26656,-2.37879 -2.17431,-3.39464 -0.90777,-1.0158 -1.9628,-1.8963 -3.09795,-2.59569 -1.13519,-0.69926 -2.35257,-1.2189 -3.61127,-1.51812 -0.31469,-0.0749 -0.62536,-0.13355 -0.93044,-0.17856 z"
         id="path4876-4"
         inkscape:connector-curvature="0"
         sodipodi:nodetypes="csssccscsccscscccsccscsssscscscc" />
      <path
         sodipodi:nodetypes="csssssssssssssssc"
         inkscape:connector-curvature="0"
         id="path4878-2-2"
         d="m 154.15969,237.7679 c -0.49846,0.0631 -0.99664,0.31896 -1.40398,0.89478 -0.29437,0.41607 -0.44915,0.97457 -0.48722,1.69586 -0.0254,0.47931 8.7e-4,1.03052 0.072,1.65962 0.0252,0.22359 0.37924,0.76038 0.62494,1.03523 0.39383,0.44055 0.89544,0.95548 0.97956,0.88274 0.0587,-0.0507 -0.64107,-0.55211 -0.94329,-1.09362 -0.25207,-0.45161 -0.30813,-0.89687 -0.28194,-1.57071 0.0392,-1.00765 0.26135,-1.60306 0.56365,-2.03038 0.44171,-0.62436 0.98569,-0.81169 1.53341,-0.77823 0.54774,0.0332 1.08336,0.30024 1.4575,0.54793 0.79805,0.52841 1.83075,1.35439 2.79474,2.96401 0.1787,0.29836 0.36883,0.19932 0.186,-0.093 -1.02218,-1.63431 -1.96937,-2.80542 -2.90619,-3.434 -0.43221,-0.29004 -1.0429,-0.61531 -1.69409,-0.68367 -0.1628,-0.0172 -0.32896,-0.0176 -0.49512,0.005 z"
         style="color:#000000;font-style:normal;font-variant:normal;font-weight:normal;font-stretch:normal;font-size:medium;line-height:normal;font-family:sans-serif;font-variant-ligatures:normal;font-variant-position:normal;font-variant-caps:normal;font-variant-numeric:normal;font-variant-alternates:normal;font-feature-settings:normal;text-indent:0;text-align:start;text-decoration:none;text-decoration-line:none;text-decoration-style:solid;text-decoration-color:#000000;letter-spacing:normal;word-spacing:normal;text-transform:none;writing-mode:lr-tb;direction:ltr;text-orientation:mixed;dominant-baseline:auto;baseline-shift:baseline;text-anchor:start;white-space:normal;shape-padding:0;clip-rule:nonzero;display:inline;overflow:visible;opacity:1;isolation:auto;mix-blend-mode:normal;color-interpolation:sRGB;color-interpolation-filters:linearRGB;solid-color:#000000;solid-opacity:1;vector-effect:none;fill:#1d1d1b;fill-opacity:1;fill-rule:evenodd;stroke:#9a8878;stroke-width:1.35489;stroke-linecap:round;stroke-linejoin:miter;stroke-miterlimit:4;stroke-dasharray:none;stroke-dashoffset:0;stroke-opacity:1;color-rendering:auto;image-rendering:auto;shape-rendering:auto;text-rendering:auto;enable-background:accumulate" />
      <path
         sodipodi:nodetypes="csssssssssssssssc"
         inkscape:connector-curvature="0"
         id="path4878-2"
         d="m 155.82746,238.43675 c -0.49846,0.0631 -0.99664,0.31896 -1.40398,0.89478 -0.29437,0.41607 -0.44915,0.97457 -0.48722,1.69586 -0.0254,0.47931 8.7e-4,1.03052 0.072,1.65962 0.0252,0.22359 0.37924,0.76038 0.62494,1.03523 0.39383,0.44055 0.89544,0.95548 0.97956,0.88274 0.0587,-0.0507 -0.64107,-0.55211 -0.94329,-1.09362 -0.25207,-0.45161 -0.30813,-0.89687 -0.28194,-1.57071 0.0392,-1.00765 0.26135,-1.60306 0.56365,-2.03038 0.44171,-0.62436 0.98569,-0.81169 1.53341,-0.77823 0.54774,0.0332 1.08336,0.30024 1.4575,0.54793 0.79805,0.52841 1.83075,1.35439 2.79474,2.96401 0.1787,0.29836 0.36883,0.19932 0.186,-0.093 -1.02218,-1.63431 -1.96937,-2.80542 -2.90619,-3.434 -0.43221,-0.29004 -1.0429,-0.61531 -1.69409,-0.68367 -0.1628,-0.0172 -0.32896,-0.0176 -0.49512,0.005 z"
         style="color:#000000;font-style:normal;font-variant:normal;font-weight:normal;font-stretch:normal;font-size:medium;line-height:normal;font-family:sans-serif;font-variant-ligatures:normal;font-variant-position:normal;font-variant-caps:normal;font-variant-numeric:normal;font-variant-alternates:normal;font-feature-settings:normal;text-indent:0;text-align:start;text-decoration:none;text-decoration-line:none;text-decoration-style:solid;text-decoration-color:#000000;letter-spacing:normal;word-spacing:normal;text-transform:none;writing-mode:lr-tb;direction:ltr;text-orientation:mixed;dominant-baseline:auto;baseline-shift:baseline;text-anchor:start;white-space:normal;shape-padding:0;clip-rule:nonzero;display:inline;overflow:visible;opacity:1;isolation:auto;mix-blend-mode:normal;color-interpolation:sRGB;color-interpolation-filters:linearRGB;solid-color:#000000;solid-opacity:1;vector-effect:none;fill:#ccb49f;fill-opacity:1;fill-rule:evenodd;stroke:#000000;stroke-width:1.35489;stroke-linecap:round;stroke-linejoin:miter;stroke-miterlimit:4;stroke-dasharray:none;stroke-dashoffset:0;stroke-opacity:1;color-rendering:auto;image-rendering:auto;shape-rendering:auto;text-rendering:auto;enable-background:accumulate" />
      <path
         sodipodi:nodetypes="sssssssssssssssss"
         inkscape:connector-curvature="0"
         id="path4823"
         d="m 225.06002,240.74318 c -0.27976,1.08959 -0.11543,2.18419 0.30384,3.16304 0.41928,0.97882 1.07183,1.83988 1.81963,2.53051 0.74783,0.69063 1.59996,1.21652 2.59172,1.54086 0.99177,0.32431 2.23387,0.61691 3.39108,0.4505 1.15721,-0.16637 1.97558,-0.80313 2.65098,-1.47779 0.67538,-0.67468 1.39201,-1.51158 2.5656,-2.27905 1.17358,-0.76743 2.3097,-1.55779 2.80737,-2.40795 0.49766,-0.8502 0.82619,-1.7326 0.95009,-2.62015 0.12391,-0.88752 0.0324,-1.69849 -0.23452,-2.42718 -0.26693,-0.7287 -0.70931,-1.37489 -1.29627,-1.91972 -0.58698,-0.5449 -1.31852,-0.9883 -2.1717,-1.29942 -0.8532,-0.31111 -1.82768,-0.48972 -2.912,-0.49438 -1.08432,-0.005 -2.17831,0.16584 -3.2415,0.49029 -1.06318,0.32449 -2.09638,0.80292 -3.03235,1.41266 -0.93596,0.60975 -1.77313,1.35107 -2.42274,2.19799 -0.6496,0.84695 -1.48947,2.05023 -1.76923,3.13979 z"
         style="color:#000000;clip-rule:nonzero;display:inline;overflow:visible;opacity:1;isolation:auto;mix-blend-mode:normal;color-interpolation:sRGB;color-interpolation-filters:linearRGB;solid-color:#000000;solid-opacity:1;fill:#ccb49f;fill-opacity:1;fill-rule:nonzero;stroke:none;stroke-width:1.02553;stroke-linecap:butt;stroke-linejoin:miter;stroke-miterlimit:4;stroke-dasharray:none;stroke-dashoffset:0;stroke-opacity:1;color-rendering:auto;image-rendering:auto;shape-rendering:auto;text-rendering:auto;enable-background:accumulate" />
      <path
         sodipodi:nodetypes="csssccscsccscscccsccscsssscscscc"
         inkscape:connector-curvature="0"
         id="path4825"
         d="m 235.91369,232.98252 c 0.83707,0.0896 1.60744,0.28142 2.30594,0.55579 0.93137,0.36587 1.73333,0.87846 2.38072,1.50186 0.64741,0.62344 1.14055,1.35607 1.44377,2.1794 0.30322,0.82334 0.41626,1.73539 0.2983,2.73026 -0.11797,0.99487 -0.45663,1.98358 -0.98163,2.93187 -0.525,0.94827 -1.54803,1.85382 -2.8413,2.67505 -1.29327,0.82124 -2.09151,1.74022 -2.81802,2.47612 -0.72406,0.73327 -0.4414,0.55684 -1.7685,0.55803 -0.15293,-3e-5 -0.16809,-0.45131 -0.0346,-0.47637 1.1722,-0.20712 0.61902,-0.35415 1.32731,-0.90899 0.66057,-0.67693 1.36096,-1.51679 2.50856,-2.28657 1.14756,-0.76973 2.25848,-1.56283 2.74612,-2.41583 0.48764,-0.85304 0.81103,-1.73891 0.93344,-2.62963 0.12251,-0.89067 0.0329,-1.70398 -0.22754,-2.43566 -0.26041,-0.73173 -0.69204,-1.38229 -1.26625,-1.92991 -0.57423,-0.54769 -1.28922,-0.99291 -2.12439,-1.30632 -0.41759,-0.15661 -0.86684,-0.28007 -1.34238,-0.36504 -0.47554,-0.085 -0.97917,-0.13225 -1.50969,-0.13555 -1.0611,-0.006 -2.12961,0.1651 -3.16872,0.49024 -1.0391,0.32521 -2.04958,0.8062 -2.96304,1.41834 -0.91344,0.61219 -1.72915,1.35586 -2.36294,2.2062 -0.6338,0.85039 -1.45394,2.05755 -1.7288,3.15097 -0.2257,0.89788 -0.4906,0.90279 -0.16137,1.87875 0.0614,0.18173 -0.8379,0.12759 -1.01709,-0.31407 -0.33395,-0.82431 0.0479,-0.80844 0.28847,-1.66602 0.32532,-1.15952 1.12087,-2.51975 1.82338,-3.46209 0.70253,-0.9423 1.60947,-1.76443 2.62122,-2.43577 1.01176,-0.67137 2.1259,-1.1932 3.27361,-1.54111 1.14774,-0.34791 2.33118,-0.52271 3.50581,-0.49849 0.29369,0.006 0.58048,0.025 0.85953,0.0546 z"
         style="color:#000000;clip-rule:nonzero;display:inline;overflow:visible;opacity:1;isolation:auto;mix-blend-mode:normal;color-interpolation:sRGB;color-interpolation-filters:linearRGB;solid-color:#000000;solid-opacity:1;fill:#1d1d1b;fill-opacity:1;fill-rule:nonzero;stroke:#000000;stroke-width:0.913096;stroke-linecap:butt;stroke-linejoin:miter;stroke-miterlimit:4;stroke-dasharray:none;stroke-dashoffset:0;stroke-opacity:1;color-rendering:auto;image-rendering:auto;shape-rendering:auto;text-rendering:auto;enable-background:accumulate" />
      <path
         inkscape:connector-curvature="0"
         d="m 192.69535,229.90649 c -2.05821,0.0516 -4.95776,-0.1516 -7.43505,-0.56223 -0.39663,-0.0656 0.28596,1.24538 -0.10432,1.27635 -1.65387,0.13071 -3.21476,0.1397 -4.55863,-0.17861 1.31166,0.43339 1.95389,1.78357 2.18067,2.03624 -3.69485,-0.38178 -7.34774,0.5916 -10.26838,1.47425 2.11467,0.2847 2.34326,0.45537 3.37441,1.46262 -3.49733,0.34184 -5.41176,0.56145 -8.75352,2.35479 l 3.96856,0.39688 c -4.53301,0.92551 -8.82745,2.63048 -12.58602,6.08541 1.55568,0.3863 3.23721,0.55245 5.10244,0.39688 -5.67528,1.57772 -8.26051,3.19962 -11.12673,5.87004 l 4.27245,-0.0889 c -3.07372,1.89683 -4.80197,5.22341 -6.94658,8.74608 l 5.15505,-1.89336 c -3.19594,2.83898 -5.37706,6.26956 -7.02459,10.01183 l 3.50957,-1.41287 c -2.00922,1.4605 -3.79825,5.11229 -5.49793,8.55981 0.75607,-0.26379 1.4822,-1.58089 2.54986,-0.75459 -1.77497,2.27515 -3.21137,5.05857 -3.90235,8.95985 l 2.65509,-0.62548 c -2.05844,1.76901 -2.34441,4.8813 -3.31909,8.27617 0.9545,0.20637 1.75615,-1.19274 2.86553,-1.52929 -1.33457,2.39686 -2.47457,5.56524 -3.03425,11.03524 1.33639,-0.88265 2.38908,-1.43404 3.26103,-1.77483 -1.76159,3.53801 -2.5383,6.02271 -2.44214,11.18659 1.50442,-1.72138 2.00854,0.76491 3.35831,-0.0529 -1.46723,3.54383 -2.84467,5.05672 -3.35264,11.77184 0.89598,-0.25982 1.85887,-0.55853 3.37713,-1.1811 -1.07877,2.48814 -1.29466,6.3119 -1.59922,10.60662 0.58576,-0.58949 1.4398,-0.96996 2.49,-1.19803 -0.85857,3.74914 -0.0885,7.47156 -0.0145,9.9515 0.41114,-1.1631 1.03296,-1.99892 1.90854,-2.43945 0.22995,4.38811 0.13788,8.27563 1.83869,14.95213 1.70082,-1.28773 1.88337,-2.0484 2.8102,-2.25213 -0.36896,2.77971 0.25331,6.19045 1.58743,10.05416 0.80165,-1.03558 1.72349,-1.71979 2.83469,-1.85208 -0.85631,2.32701 1.25089,5.452 4.42212,8.86354 l 1.47404,-2.64583 c 1.77474,3.15436 5.05346,4.92495 8.06685,6.99558 -0.3574,-1.47823 0.45786,-2.46777 2.26775,-3.04271 1.84572,2.20557 3.90008,4.22196 7.14342,5.15938 -0.35218,-1.01441 0.0515,-2.02856 1.24726,-3.04271 1.17175,1.61925 2.34327,2.37649 3.51502,2.91042 -0.068,-1.0885 0.80732,-1.88331 3.06147,-2.24896 l 0.22677,2.77812 c 0.25376,-1.55337 1.18762,-2.4892 2.83469,-2.77812 0.89826,0.40693 1.53504,1.11919 1.8142,2.24896 2.49385,-0.70644 4.77362,-1.74625 6.80326,-3.175 0.79756,0.25982 0.67057,0.71808 0.38461,2.2426 4.33867,-1.4605 9.26468,-2.48576 12.65497,-6.34365 1.01482,0.19421 1.51236,1.12607 1.13387,3.3073 2.72448,-1.91268 5.12104,-4.39923 6.91665,-7.9375 0.95336,0.29342 1.80944,1.26841 2.60792,2.64583 2.1818,-4.24947 2.63104,-8.08064 2.33578,-10.88496 l 2.72131,2.38125 c 1.51327,-4.60957 2.49974,-8.70691 2.15436,-11.50937 l 2.26775,3.43958 c 0.91753,-6.49076 2.06706,-12.30365 1.74617,-15.18179 l 3.85518,1.85208 c -0.59189,-6.04202 -1.21892,-12.02187 -3.06147,-15.875 l 4.19534,3.57188 c -0.73021,-5.25992 -1.13092,-10.17905 -3.41977,-14.1658 l 2.65327,0.87842 c -0.34379,-5.14138 -1.28422,-7.88379 -2.86644,-12.48304 0.91368,0.58341 2.02352,1.47214 3.40163,2.77812 -0.74155,-5.67954 -2.0607,-11.13446 -4.19534,-16.27187 l 3.17485,1.98437 c -1.633,-5.68854 -3.47532,-11.22415 -6.3497,-16.00729 0.9994,0.64188 2.04891,1.22529 3.51501,1.32292 -1.93099,-5.6978 -3.28664,-10.39997 -6.45855,-13.38264 0.98239,0.4408 2.31401,0.88188 4.5355,1.32292 -2.87233,-5.81767 -5.03509,-7.41681 -7.59697,-8.89001 0.85154,-0.62784 2.62492,-0.0511 4.40579,-0.13652 -2.84671,-3.36497 -7.71421,-5.33584 -11.1807,-5.98858 1.84686,-0.76518 3.43497,-1.78725 5.24304,-1.28799 -3.166,-2.61116 -8.78481,-5.20514 -13.2083,-6.34894 1.32369,-0.13942 2.81678,-0.37755 4.45024,-0.69745 -3.82638,-1.62454 -7.95799,-2.53682 -12.55836,-2.35479 -0.10454,-0.88371 0.67647,-1.50918 2.4299,-1.85102 -1.51645,-0.23495 -4.45773,0.30243 -6.28168,0.21565 -0.3905,-0.0187 0.30094,-1.14804 -0.0825,-1.11125 -1.33343,0.12806 -2.46617,1.13453 -3.77195,1.44064 -1.91103,-0.18838 -3.38643,-0.53922 -5.7619,-0.36618 z"
         style="clip-rule:evenodd;display:inline;fill:#ccb49f;fill-opacity:1;fill-rule:evenodd;stroke-width:0.244951;stroke-linejoin:round;stroke-miterlimit:2;enable-background:new"
         id="path26" />
      <path
         sodipodi:nodetypes="cccccccccccc"
         inkscape:connector-curvature="0"
         id="path3073"
         d="m 175.64524,235.96567 8.74525,-2.3151 7.79123,-1.65365 c 0,0 -3.44509,-0.8032 0,0 3.44511,0.8032 7.63222,-0.56696 7.63222,-0.56696 l 9.93032,2.78553 5.89256,-0.60283 -12.56478,-3.90762 -17.64938,0.4376 -3.41039,1.26309 -7.26804,1.2999 z"
         style="fill:#9a8878;fill-opacity:1;stroke:none;stroke-width:0.280233px;stroke-linecap:butt;stroke-linejoin:miter;stroke-opacity:1" />
      <path
         inkscape:connector-curvature="0"
         d="m 198.4169,229.55512 c 0.85244,-0.22197 1.62801,-0.74849 2.44576,-1.0885 0.42521,-0.17674 0.86039,-0.30903 1.31575,-0.35401 0.50526,-0.05 0.70731,0.24952 0.77648,0.67786 0.0136,0.0839 -0.006,0.2564 -0.0354,0.43473 1.33843,-0.0208 3.05512,-0.25693 4.40489,-0.29291 0.51092,-0.0138 0.97309,0 1.35271,0.0587 0.31249,0.0484 0.54766,0.35641 0.55288,0.72418 0.005,0.36777 -0.22088,0.68446 -0.53179,0.74531 -0.46761,0.0924 -0.85902,0.20426 -1.17447,0.34054 1.77225,0.007 3.4767,0.17487 5.1224,0.48048 2.19972,0.40824 4.29422,1.06335 6.30662,1.91107 0.28846,0.12252 0.46988,0.45614 0.44199,0.81255 -0.0281,0.35666 -0.25852,0.64636 -0.56105,0.70563 l -1.0892,0.17357 c 1.20803,0.43684 2.43716,0.9435 3.63067,1.49807 2.50066,1.16152 4.84483,2.53471 6.52116,3.91001 0.2821,0.23283 0.38325,0.66597 0.24105,1.03346 -0.14195,0.36724 -0.48734,0.56568 -0.82364,0.47283 -0.63316,-0.17304 -1.23411,-0.11854 -1.83166,0.0418 -0.21159,0.0566 -0.42271,0.12619 -0.63407,0.20504 1.19103,0.36964 2.44124,0.85965 3.65993,1.47189 2.04438,1.02736 3.99691,2.40108 5.4519,4.11452 0.21181,0.2503 0.27712,0.62283 0.16668,0.95014 -0.11067,0.32755 -0.37622,0.54793 -0.6776,0.56222 -0.62023,0.0314 -1.23978,-0.0162 -1.82078,-0.0659 0.79167,0.61701 1.57541,1.36843 2.38771,2.38072 1.02321,1.27555 2.09359,2.97259 3.27895,5.36259 0.15307,0.31009 0.13878,0.69532 -0.0365,0.98901 -0.1753,0.2934 -0.48009,0.44263 -0.78238,0.38259 -0.66536,-0.13046 -1.25293,-0.26141 -1.77588,-0.39451 0.50957,0.77974 0.96811,1.62348 1.39422,2.52518 1.17151,2.47943 2.09721,5.41073 3.20592,8.66406 0.10386,0.30586 0.0667,0.65246 -0.0984,0.91916 -0.1651,0.26644 -0.43541,0.41672 -0.71707,0.39793 -0.48167,-0.0309 -0.92343,-0.10927 -1.33548,-0.22225 0.59869,1.17899 1.14907,2.39316 1.66181,3.63485 1.31643,3.18902 2.38205,6.56193 3.37192,9.99014 0.11203,0.39026 0.009,0.821 -0.26102,1.08664 -0.26963,0.26564 -0.65084,0.31221 -0.96198,0.118 l -0.93703,-0.58393 c 0.62726,1.75842 1.16857,3.55097 1.63278,5.37369 0.70164,2.75404 1.22731,5.57662 1.6067,8.45661 0.0551,0.42201 -0.11792,0.84005 -0.43563,1.05198 -0.31749,0.2122 -0.71389,0.17436 -0.99804,-0.0947 -0.34243,-0.32358 -0.66808,-0.62098 -0.97831,-0.89297 0.3481,1.07315 0.64971,2.08571 0.90687,3.11918 0.48417,1.9468 0.81299,3.96742 0.9901,6.59553 0.0227,0.34184 -0.0991,0.67495 -0.32655,0.89217 -0.22746,0.21723 -0.53156,0.29105 -0.81413,0.19738 l -0.56466,-0.18653 c 0.43676,1.09591 0.77987,2.24288 1.06176,3.43297 0.65334,2.75722 0.97467,5.75151 1.40736,8.86407 0.0585,0.42228 -0.10726,0.84429 -0.41976,1.06813 -0.31249,0.22383 -0.71003,0.20505 -1.0062,-0.0471 l -1.59899,-1.36234 c 0.24514,0.90937 0.45831,1.87299 0.64654,2.87814 0.56376,3.0099 0.90982,6.40318 1.24295,9.8163 0.0361,0.36777 -0.0973,0.73052 -0.35059,0.95383 -0.25331,0.22304 -0.58872,0.27358 -0.88216,0.13255 l -2.57231,-1.23719 c -0.0236,0.91599 -0.11361,1.97485 -0.25217,3.14775 -0.34833,2.94772 -0.99555,6.65824 -1.55704,10.62064 -0.0576,0.40825 -0.31749,0.73739 -0.66151,0.8382 -0.34379,0.1008 -0.70617,-0.046 -0.92252,-0.37412 l -0.71139,-1.0795 c -0.0667,0.61965 -0.166,1.26973 -0.29413,1.94601 -0.39482,2.08571 -1.0629,4.43918 -1.8845,6.93923 -0.0993,0.30268 -0.31454,0.53313 -0.58123,0.62282 -0.26669,0.0897 -0.55401,0.0283 -0.77625,-0.16589 l -1.23524,-1.08188 c -0.0351,1.16787 -0.18845,2.4429 -0.5014,3.80021 -0.39482,1.71238 -1.04385,3.55917 -2.03463,5.48693 -0.15443,0.30083 -0.42997,0.48895 -0.73044,0.49847 -0.30071,0.01 -0.58463,-0.16033 -0.75312,-0.45085 -0.32089,-0.5543 -0.65017,-1.03743 -0.99532,-1.42345 -0.1762,-0.19685 -0.35445,-0.36778 -0.53769,-0.50483 -0.82047,1.48087 -1.74707,2.77601 -2.75894,3.92192 -1.23616,1.40017 -2.5993,2.57783 -4.0527,3.59727 -0.29731,0.2085 -0.67194,0.19262 -0.95541,-0.0407 -0.28347,-0.2331 -0.4218,-0.63976 -0.35309,-1.03637 0.11702,-0.67231 0.1465,-1.19275 0.0687,-1.5875 -0.0284,-0.1442 -0.081,-0.25374 -0.15489,-0.33364 -1.34091,1.39753 -2.88185,2.42279 -4.52053,3.23135 -2.6002,1.2827 -5.44896,2.01322 -8.08499,2.89798 -0.29277,0.0984 -0.60844,0.0101 -0.83091,-0.23309 -0.22224,-0.24289 -0.31862,-0.60458 -0.25331,-0.95198 0.0399,-0.21272 0.0769,-0.43365 0.10704,-0.63076 -0.83907,0.53446 -1.716,1.00938 -2.62877,1.42822 -1.15066,0.52784 -2.35847,0.96679 -3.61933,1.32265 -0.44653,0.12647 -0.89894,-0.17992 -1.02617,-0.69479 -0.0964,-0.39159 -0.25036,-0.71412 -0.46171,-0.97208 -0.17621,-0.21511 -0.39005,-0.38524 -0.63406,-0.52017 -0.49551,0.11244 -0.90302,0.29897 -1.21688,0.57943 -0.36352,0.32518 -0.58168,0.78052 -0.67534,1.35097 -0.0794,0.4863 -0.45309,0.83026 -0.87671,0.80724 -0.42384,-0.0233 -0.76854,-0.4064 -0.80868,-0.89906 l -0.13811,-1.7055 c -0.32066,0.0849 -0.59529,0.18468 -0.82682,0.3003 -0.3998,0.19897 -0.65016,0.37968 -0.62976,0.70988 0.0211,0.3384 -0.10794,0.66596 -0.3422,0.86757 -0.23403,0.20135 -0.5404,0.24871 -0.8114,0.12541 -0.70187,-0.32067 -1.40283,-0.71649 -2.1047,-1.29831 -0.39255,-0.32544 -0.78555,-0.70855 -1.17742,-1.17184 -0.12336,0.14605 -0.22428,0.29342 -0.30229,0.44238 -0.15194,0.29052 -0.19004,0.57944 -0.0893,0.87022 0.11883,0.34211 0.0633,0.73316 -0.14423,1.01203 -0.20727,0.27914 -0.53111,0.39873 -0.83839,0.31009 -1.62848,-0.47228 -2.97506,-1.20015 -4.14953,-2.08359 -1.14001,-0.85752 -2.1165,-1.8624 -3.03017,-2.92524 -0.40888,0.16458 -0.73748,0.35852 -0.97514,0.59982 -0.27485,0.27913 -0.35831,0.63711 -0.25285,1.07526 0.0923,0.3818 -0.0236,0.79058 -0.29277,1.03294 -0.26918,0.24209 -0.63769,0.26881 -0.93068,0.0675 -1.78632,-1.22951 -3.66356,-2.35796 -5.27457,-3.72136 -0.86333,-0.73104 -1.65183,-1.52929 -2.319,-2.43867 l -0.83522,1.49675 c -0.13198,0.23707 -0.34674,0.39397 -0.58735,0.42916 -0.24038,0.0352 -0.48189,-0.055 -0.65991,-0.24659 -1.99948,-2.15424 -3.5801,-4.21323 -4.33572,-6.03118 -0.32043,-0.771 -0.50026,-1.50945 -0.5302,-2.20769 -0.0506,0.0307 -0.10069,0.063 -0.15012,0.0971 -0.3896,0.26776 -0.74586,0.62997 -1.07968,1.06045 -0.188,0.24288 -0.46965,0.35533 -0.74563,0.29818 -0.27599,-0.0571 -0.5073,-0.27622 -0.61207,-0.57944 -0.75721,-2.19789 -1.28945,-4.2545 -1.55319,-6.1378 -0.12336,-0.87921 -0.18822,-1.72217 -0.19162,-2.52598 -0.33926,0.34449 -0.77671,0.77656 -1.46111,1.29382 -0.21249,0.16113 -0.47782,0.19552 -0.71548,0.0934 -0.23789,-0.10239 -0.42044,-0.3294 -0.49256,-0.61277 -0.75221,-2.96069 -1.15859,-5.38348 -1.39716,-7.54407 -0.23426,-2.11931 -0.30547,-3.9833 -0.3837,-5.85866 -0.18165,0.2831 -0.3345,0.61012 -0.46376,0.97499 -0.14219,0.40216 -0.50548,0.6342 -0.8724,0.55694 -0.36693,-0.077 -0.63815,-0.44238 -0.65108,-0.87709 -0.0465,-1.59888 -0.37939,-3.71184 -0.38438,-6.01583 -0.002,-0.87974 0.0429,-1.78594 0.16396,-2.70246 l -0.008,0.003 c -0.37101,0.16431 -0.69099,0.36486 -0.9452,0.62019 -0.24038,0.24183 -0.58236,0.28998 -0.86515,0.12197 -0.28301,-0.16801 -0.4506,-0.51885 -0.42452,-0.88821 0.16985,-2.36537 0.31385,-4.58946 0.58553,-6.53097 0.13131,-0.93795 0.29345,-1.8124 0.50004,-2.60959 l -1.89879,0.66173 c -0.24129,0.0699 -0.49686,0 -0.68577,-0.18918 -0.1889,-0.18865 -0.28823,-0.47202 -0.26623,-0.76121 0.21816,-2.85247 0.59075,-4.79689 1.05519,-6.35264 0.5141,-1.72165 1.14408,-2.95937 1.81624,-4.43786 -0.11135,-0.0503 -0.22043,-0.1098 -0.32815,-0.17515 -0.25739,-0.15611 -0.47123,-0.44424 -0.76831,-0.41196 -0.14604,0.0159 -0.29005,0.14473 -0.48507,0.36724 -0.21521,0.24633 -0.53496,0.31962 -0.81413,0.18706 -0.27916,-0.13255 -0.46398,-0.44582 -0.47056,-0.79745 -0.0442,-2.4892 0.11022,-4.37886 0.46716,-6.05658 0.25286,-1.18904 0.60708,-2.27277 1.06993,-3.38667 -0.38235,0.22093 -0.79235,0.4752 -1.23456,0.7665 -0.24356,0.16087 -0.54426,0.14817 -0.77739,-0.0328 -0.23313,-0.18097 -0.359,-0.49953 -0.32588,-0.82417 0.24014,-2.32648 0.58327,-4.24657 0.9994,-5.87269 0.27349,-1.06945 0.57896,-2.01375 0.90869,-2.86306 l -0.12155,0.0577 c -0.33064,0.1397 -0.66627,0.18785 -1.01324,0.11245 -0.20794,-0.045 -0.38891,-0.19289 -0.49618,-0.40535 -0.10726,-0.21246 -0.1304,-0.46884 -0.0631,-0.70273 0.67398,-2.34049 1.03683,-4.54606 1.84233,-6.29019 0.0617,-0.13362 0.12563,-0.26459 0.19276,-0.39238 l -0.53655,0.12568 c -0.23698,0.0558 -0.48213,-0.031 -0.65266,-0.23072 -0.17054,-0.19976 -0.24356,-0.4863 -0.19457,-0.76253 0.33835,-1.90182 0.84723,-3.54833 1.48152,-5.00539 0.40933,-0.94006 0.87082,-1.80154 1.37357,-2.60111 -0.20069,0.15531 -0.39685,0.29474 -0.59483,0.36353 -0.27802,0.0971 -0.57872,-0.0135 -0.75878,-0.27913 -0.18007,-0.26538 -0.20319,-0.63209 -0.0585,-0.92552 0.95382,-1.93013 1.93643,-3.92271 2.9678,-5.56974 0.13131,-0.20955 0.26375,-0.41381 0.39732,-0.61172 l -0.53542,0.21485 c -0.26873,0.10821 -0.56694,0.0151 -0.75312,-0.23575 -0.18641,-0.25056 -0.22315,-0.60831 -0.0934,-0.9033 0.86855,-1.96825 1.88155,-3.85156 3.10478,-5.61234 0.50797,-0.73131 1.05223,-1.44145 1.63754,-2.12778 l -2.04891,0.75008 c -0.27893,0.10241 -0.58259,-0.0141 -0.75449,-0.29023 -0.17212,-0.2757 -0.17393,-0.64876 -0.005,-0.92686 1.28401,-2.10449 2.42355,-4.13808 3.77967,-5.84806 0.45718,-0.57602 0.9384,-1.1163 1.45703,-1.61108 l -1.99608,0.0392 c -0.28528,0.006 -0.54222,-0.20055 -0.63882,-0.51382 -0.0968,-0.31327 -0.0118,-0.66358 0.21112,-0.87126 1.682,-1.56397 3.27056,-2.77629 5.4061,-3.83039 0.60413,-0.29845 1.25248,-0.58391 1.96002,-0.86095 -0.36035,-0.0637 -0.71366,-0.1397 -1.06131,-0.22648 -0.2465,-0.0611 -0.4404,-0.28311 -0.49754,-0.56939 -0.0572,-0.28652 0.0329,-0.5855 0.23085,-0.76754 1.91784,-1.75947 3.97038,-3.07657 6.12135,-4.07193 0.90529,-0.41886 1.82803,-0.78052 2.76529,-1.09354 -0.24945,-0.0619 -0.44584,-0.29528 -0.49051,-0.5945 -0.0494,-0.32996 0.098,-0.65751 0.35899,-0.79746 1.70217,-0.91122 3.04559,-1.42557 4.40329,-1.7563 0.81413,-0.19844 1.63369,-0.3302 2.54124,-0.43974 -0.34197,-0.0839 -0.77602,-0.15057 -1.37221,-0.23153 -0.29685,-0.0399 -0.52725,-0.3212 -0.54789,-0.66911 -0.0209,-0.34795 0.17416,-0.66358 0.46353,-0.75117 1.83869,-0.55351 3.9638,-1.1406 6.20706,-1.41418 0.90959,-0.11113 1.83847,-0.17068 2.77573,-0.15505 -0.24423,-0.22888 -0.54267,-0.43737 -0.90529,-0.55774 -0.3143,-0.104 -0.50207,-0.47918 -0.42497,-0.84984 0.0771,-0.37042 0.39141,-0.60353 0.71162,-0.52786 0.53995,0.12858 1.11687,0.20083 1.7219,0.23283 0.68396,0.036 1.40283,0.0208 2.14439,-0.0257 -0.0186,-0.0953 -0.0345,-0.18627 -0.0424,-0.25083 -0.0347,-0.28099 0.0125,-0.50772 0.0816,-0.65218 0.12767,-0.26645 0.33631,-0.46619 0.72114,-0.40192 1.1713,0.19526 2.43829,0.34396 3.66378,0.44055 1.32891,0.10449 2.60883,0.14817 3.66538,0.1233 0.88782,-0.0667 1.65364,-0.0614 2.36367,-0.019 1.17855,0.0701 2.1995,0.24525 3.37918,0.36166 z m 3.16668,0.15081 c -0.10454,0.0346 -0.20772,0.0736 -0.31045,0.11564 -0.89826,0.36777 -1.75502,0.92999 -2.69591,1.14776 -0.0565,0.013 -0.11406,0.0169 -0.17121,0.0113 -1.20554,-0.12224 -2.23646,-0.30956 -3.43247,-0.3876 -0.67239,-0.0439 -1.3983,-0.0527 -2.24122,0.006 h -0.0243 c -1.08806,0.0286 -2.40812,-0.0123 -3.77875,-0.11719 -1.02344,-0.0783 -2.07477,-0.19209 -3.07847,-0.3392 0.0227,0.15717 0.0365,0.30533 0.0284,0.39423 -0.0435,0.47703 -0.26306,0.75114 -0.68237,0.78476 -0.82274,0.0661 -1.62303,0.10213 -2.38613,0.0841 0.18414,0.25877 0.31114,0.46885 0.38914,0.55588 0.18755,0.20902 0.24152,0.5334 0.13448,0.80909 -0.10704,0.2757 -0.35173,0.44239 -0.61025,0.41568 -1.36292,-0.13917 -2.71972,-0.0878 -4.03388,0.0757 -1.20644,0.14976 -2.37728,0.39395 -3.48485,0.676 0.33858,0.21219 0.64834,0.49716 1.07945,0.91704 0.19389,0.18972 0.27077,0.49689 0.19434,0.77841 -0.0764,0.28126 -0.29095,0.48101 -0.5429,0.50563 -1.74027,0.17223 -3.0821,0.31115 -4.40851,0.63765 -0.55038,0.13518 -1.09804,0.30346 -1.67133,0.52017 l 1.29716,0.1283 c 0.31861,0.0317 0.56761,0.33472 0.58145,0.7075 0.014,0.37281 -0.21113,0.69984 -0.52612,0.76412 -2.23896,0.45984 -4.4185,1.11206 -6.50119,2.08096 -1.58517,0.73766 -3.11386,1.65894 -4.56862,2.82018 0.31295,0.0442 0.63134,0.0788 0.9554,0.10319 0.78827,0.059 1.61079,0.0574 2.47435,-0.0155 0.34016,-0.0282 0.642,0.25266 0.6937,0.64583 0.0519,0.39317 -0.1635,0.76705 -0.49528,0.85912 -2.39792,0.66965 -4.23457,1.34462 -5.77233,2.10792 -1.3119,0.65116 -2.40382,1.36659 -3.44359,2.19604 l 2.19791,-0.0481 c 0.31046,-0.006 0.58395,0.23654 0.66128,0.58713 0.0776,0.35055 -0.0615,0.71755 -0.33563,0.88688 -1.19125,0.73686 -2.16638,1.70364 -3.044,2.81465 -0.89894,1.13742 -1.69696,2.42358 -2.50882,3.77796 l 3.24176,-1.19457 c 0.31771,-0.1167 0.6615,0.05 0.8148,0.395 0.15307,0.3453 0.0714,0.76888 -0.19367,1.00436 -1.50896,1.34331 -2.78435,2.82233 -3.88012,4.40612 -0.77603,1.12156 -1.46202,2.29553 -2.07727,3.51102 l 1.79879,-0.72654 c 0.33676,-0.13547 0.70685,0.0455 0.86015,0.42069 0.1533,0.37517 0.0406,0.82469 -0.26169,1.04429 -0.83318,0.60695 -1.616,1.63063 -2.37774,2.85168 -0.60073,0.96309 -1.18309,2.04814 -1.75229,3.16839 0.37145,-0.0307 0.77194,0.0659 1.20508,0.40031 0.17303,0.13388 0.28732,0.34925 0.31272,0.58976 0.0256,0.24024 -0.0401,0.48181 -0.17983,0.66067 -0.90302,1.15993 -1.71488,2.45718 -2.37502,3.98065 -0.43563,1.00515 -0.80505,2.10873 -1.09192,3.33613 l 1.55046,-0.36724 c 0.33223,-0.0781 0.66627,0.1233 0.80347,0.48472 0.1372,0.36142 0.0408,0.78554 -0.23199,1.01997 -0.77966,0.67151 -1.25929,1.57083 -1.63256,2.60641 -0.39073,1.08426 -0.66694,2.30981 -0.98851,3.60865 0.47872,-0.37598 0.98171,-0.79984 1.55454,-0.97446 0.29277,-0.0889 0.60232,0.0413 0.7792,0.32755 0.17689,0.28655 0.18505,0.67019 0.0202,0.96625 -0.74678,1.34408 -1.42823,2.94164 -1.97272,5.08476 -0.28982,1.14009 -0.5404,2.43205 -0.74155,3.91901 l 0.34039,-0.19447 c 0.65606,-0.36592 1.23275,-0.63791 1.74888,-0.84031 0.29436,-0.1151 0.6191,-0.005 0.81526,0.27543 0.19616,0.28072 0.22293,0.67389 0.0669,0.98716 -0.90324,1.81848 -1.54071,3.34354 -1.91784,5.13239 -0.25444,1.2057 -0.3905,2.52994 -0.41681,4.14046 l 0.11974,-0.0193 c 0.42021,-0.0466 0.79666,0.0931 1.15768,0.31167 0.3023,0.18283 0.55787,0.60034 0.97832,0.34529 0.29004,-0.17595 0.64426,-0.11536 0.87898,0.15054 0.23448,0.26591 0.29684,0.67707 0.15466,1.02077 -0.84928,2.05607 -1.67293,3.41497 -2.30336,5.54011 -0.3549,1.19618 -0.64631,2.63948 -0.84882,4.59951 l 2.23668,-0.78502 c 0.29753,-0.12197 0.62908,-0.0206 0.83726,0.25612 0.20795,0.27676 0.25104,0.6731 0.10862,1.00171 -0.45854,1.06045 -0.74178,2.38205 -0.94951,3.88382 -0.19706,1.42399 -0.32224,3.00329 -0.44107,4.67995 0.43246,-0.19341 0.91753,-0.34607 1.44818,-0.46196 0.26465,-0.0574 0.5361,0.0476 0.71911,0.27808 0.18301,0.23045 0.25172,0.5543 0.18232,0.85804 -0.28823,1.26259 -0.37712,2.52201 -0.37281,3.72533 0.004,1.20941 0.10069,2.36564 0.19752,3.42107 0.29707,-0.29501 0.62907,-0.53605 0.9969,-0.72152 0.23766,-0.11933 0.51002,-0.0963 0.73045,0.0617 0.22042,0.15795 0.3608,0.43153 0.37667,0.73263 0.1304,2.45956 0.15761,4.76091 0.46285,7.4922 0.19684,1.75895 0.51024,3.69861 1.04362,5.97985 0.60345,-0.55113 0.92683,-0.96017 1.28445,-1.22237 0.26987,-0.19791 0.55311,-0.33761 0.91595,-0.41778 0.25716,-0.0566 0.52204,0.036 0.71026,0.24844 0.18822,0.21246 0.27621,0.51832 0.23607,0.82021 -0.15307,1.16046 -0.11565,2.43893 0.0798,3.82085 0.19616,1.38615 0.55107,2.87126 1.04136,4.44209 0.16985,-0.15187 0.34492,-0.28998 0.52453,-0.41381 0.57941,-0.39979 1.20825,-0.65511 1.89675,-0.73792 0.28754,-0.0342 0.56897,0.11165 0.74019,0.38364 0.17099,0.27173 0.20614,0.62892 0.0921,0.93874 -0.3388,0.92261 0.005,1.98015 0.65947,3.16918 0.66059,1.20148 1.65976,2.48841 2.85963,3.83144 l 0.93613,-1.68275 c 0.15171,-0.27253 0.41114,-0.4371 0.68962,-0.43789 0.27848,0 0.53836,0.16272 0.69121,0.43418 0.68191,1.21021 1.60806,2.19393 2.65168,3.07446 1.21733,1.02738 2.59227,1.91347 3.95995,2.81649 0.0819,-0.24686 0.19616,-0.47996 0.34084,-0.70009 0.45401,-0.69135 1.27471,-1.26841 2.47321,-1.6502 0.29254,-0.0931 0.60527,0.006 0.81708,0.25929 0.93295,1.1131 1.9192,2.17858 3.1016,3.06493 0.75403,0.56515 1.58878,1.05701 2.5417,1.44092 0.0313,-0.1569 0.0753,-0.31353 0.13153,-0.47043 0.24015,-0.67098 0.73158,-1.36313 1.52189,-2.03438 0.35785,-0.30348 0.85584,-0.2331 1.14136,0.16113 0.47895,0.66093 0.95699,1.16337 1.43549,1.55893 0.2948,0.24368 0.58984,0.44661 0.88487,0.62177 0.11611,-0.21458 0.2685,-0.41751 0.45922,-0.60828 0.54834,-0.54795 1.51781,-1.01071 3.03471,-1.25836 0.22972,-0.037 0.46262,0.0365 0.64449,0.20453 0.1821,0.16774 0.2973,0.41486 0.3193,0.68421 l 2.3e-4,0.003 c 0.54063,-0.43709 1.23275,-0.74454 2.08746,-0.89535 0.14741,-0.0257 0.29799,-0.006 0.43677,0.0566 0.57624,0.26061 1.06449,0.626 1.45613,1.10225 0.21498,0.26168 0.40162,0.55722 0.55469,0.89138 0.92797,-0.29236 1.8235,-0.63579 2.68479,-1.03266 1.11506,-0.51383 2.17205,-1.11734 3.16646,-1.81875 0.20365,-0.1434 0.44902,-0.1823 0.67806,-0.10769 0.63021,0.20479 0.93478,0.55272 1.10077,0.97314 0.0832,0.21035 0.11792,0.48419 0.10568,0.84905 2.19156,-0.69665 4.47677,-1.3634 6.59122,-2.41009 1.61169,-0.79772 3.12315,-1.81901 4.39989,-3.2729 0.19866,-0.22621 0.47736,-0.32861 0.75131,-0.27622 0.81752,0.15637 1.41055,0.63632 1.74164,1.48722 0.0964,0.24792 0.16894,0.53896 0.20999,0.87763 0.81661,-0.6731 1.594,-1.415 2.32286,-2.24182 1.0756,-1.22026 2.04506,-2.62599 2.87846,-4.26985 0.20024,-0.39422 0.60027,-0.58578 0.98012,-0.46884 0.54449,0.16748 1.06834,0.50059 1.56747,0.98531 0.23585,0.22913 0.46761,0.49371 0.69371,0.79084 0.55129,-1.26471 0.94429,-2.48153 1.20893,-3.6322 0.45832,-1.99469 0.52907,-3.7846 0.37237,-5.26627 -0.0431,-0.41036 0.1279,-0.81094 0.4345,-1.01785 0.3066,-0.20717 0.6894,-0.18071 0.97287,0.0675 l 1.77474,1.55152 c 0.59891,-1.91664 1.08558,-3.72481 1.39444,-5.36152 0.3134,-1.66185 0.44607,-3.13478 0.2964,-4.34578 -0.0574,-0.46673 0.16191,-0.91996 0.53428,-1.10331 0.37236,-0.18309 0.80369,-0.0503 1.05019,0.32332 l 1.0282,1.55839 c 0.45877,-3.05249 0.92411,-5.8793 1.19919,-8.22192 0.20863,-1.77483 0.31227,-3.25385 0.19412,-4.31165 -0.0413,-0.36936 0.0893,-0.73634 0.34243,-0.96335 0.25331,-0.22675 0.59098,-0.27914 0.88624,-0.13732 l 2.4469,1.17422 c -0.2778,-2.73579 -0.58712,-5.41655 -1.04316,-7.84198 -0.4209,-2.2397 -0.9638,-4.25662 -1.73892,-5.8764 -0.20659,-0.4318 -0.12767,-0.97314 0.18982,-1.30122 0.31748,-0.32782 0.78759,-0.35375 1.13002,-0.0622 l 2.43398,2.07063 c -0.28143,-2.13122 -0.56853,-4.18597 -1.02549,-6.12061 -0.43154,-1.82721 -1.01572,-3.54515 -1.91239,-5.1091 -0.20999,-0.36565 -0.20206,-0.84534 0.0197,-1.20147 0.22179,-0.35613 0.61048,-0.51303 0.97355,-0.39291 l 1.38718,0.46038 c -0.17529,-1.75975 -0.43881,-3.23533 -0.79348,-4.66805 -0.46875,-1.89336 -1.09442,-3.71316 -1.87929,-5.99969 -0.14014,-0.40719 -0.046,-0.87339 0.23539,-1.16469 0.28143,-0.29131 0.68917,-0.34502 1.01913,-0.13441 0.44834,0.28733 0.94157,0.64373 1.48697,1.08241 l 0.2338,0.19288 c -0.30954,-1.90209 -0.69279,-3.77561 -1.15746,-5.6179 -0.67352,-2.66964 -1.51803,-5.27287 -2.56392,-7.79858 -0.16373,-0.39397 -0.0912,-0.86598 0.17938,-1.1692 0.27077,-0.30321 0.67783,-0.36856 1.0087,-0.16192 l 1.24136,0.7784 c -0.76014,-2.51989 -1.58675,-4.99163 -2.5553,-7.36018 -0.85517,-2.091 -1.82078,-4.10183 -2.95239,-5.99228 -0.22246,-0.37042 -0.19684,-0.87101 0.0621,-1.20785 0.25898,-0.33679 0.68282,-0.42068 1.02253,-0.20238 0.48893,0.31563 0.98988,0.61859 1.5559,0.84481 0.0844,0.0339 0.17031,0.0659 0.25785,0.095 -0.84769,-2.54611 -1.61872,-4.86227 -2.56029,-6.87335 -0.83476,-1.78305 -1.80286,-3.3208 -3.10161,-4.54688 -0.30683,-0.28864 -0.38801,-0.79534 -0.19117,-1.1938 0.19684,-0.39871 0.6132,-0.57069 0.98126,-0.40534 0.46308,0.20902 1.00801,0.41804 1.69741,0.62759 0.28914,0.0878 0.60322,0.17596 0.94679,0.26193 -0.74723,-1.35625 -1.4491,-2.418 -2.13169,-3.27554 -1.4144,-1.77641 -2.74126,-2.65878 -4.20214,-3.50309 -0.25014,-0.14365 -0.4141,-0.43391 -0.42884,-0.75882 -0.0147,-0.32491 0.12223,-0.63366 0.35785,-0.80751 0.31817,-0.23336 0.72183,-0.36883 1.19738,-0.41328 0.41545,-0.0392 0.90279,-0.004 1.4305,0.0442 -1.01142,-0.83555 -2.14893,-1.54728 -3.31614,-2.14101 -1.9895,-1.01151 -4.0688,-1.67932 -5.79207,-2.00899 -0.33131,-0.0622 -0.58417,-0.37861 -0.61456,-0.76835 -0.0304,-0.39 0.16963,-0.75431 0.48575,-0.8853 1.07833,-0.44316 2.07205,-0.96731 3.06896,-1.24513 -1.26178,-0.81516 -2.70611,-1.6002 -4.20895,-2.30794 -2.24667,-1.05862 -4.6244,-1.94391 -6.72797,-2.49424 -0.33042,-0.0855 -0.55832,-0.43921 -0.53655,-0.83316 0.0216,-0.39398 0.28619,-0.71095 0.6234,-0.74641 l 1.42687,-0.2196 c -1.04158,-0.32939 -2.10788,-0.60219 -3.20139,-0.81174 -1.987,-0.38047 -4.06426,-0.55192 -6.25015,-0.47174 -0.32995,0.013 -0.61524,-0.26698 -0.66037,-0.64876 -0.0494,-0.42732 0.0152,-0.82285 0.21022,-1.17898 -1.21302,0.0918 -2.48568,0.21403 -3.44857,0.16535 -0.4599,-0.0229 -0.66014,-0.31274 -0.71162,-0.75008 -0.006,-0.0516 -0.002,-0.12622 0.009,-0.21167 z"
         style="clip-rule:evenodd;display:inline;fill:#1d1d1b;fill-opacity:1;fill-rule:evenodd;stroke-width:0.244951;stroke-linejoin:round;stroke-miterlimit:2;enable-background:new"
         id="path45" />
      <path
         style="color:#000000;clip-rule:nonzero;display:inline;overflow:visible;opacity:1;isolation:auto;mix-blend-mode:normal;color-interpolation:sRGB;color-interpolation-filters:linearRGB;solid-color:#000000;solid-opacity:1;fill:#9a8878;fill-opacity:1;fill-rule:nonzero;stroke:none;stroke-width:5.04452;stroke-linecap:butt;stroke-linejoin:miter;stroke-miterlimit:4;stroke-dasharray:none;stroke-dashoffset:0;stroke-opacity:1;color-rendering:auto;image-rendering:auto;shape-rendering:auto;text-rendering:auto;enable-background:accumulate"
         d="m 189.6069,284.64638 3.20614,0.0418 1.87805,-0.0414 c 0.59904,-0.0134 1.09008,0.2702 1.41744,0.68799 0.32735,0.41778 0.43461,0.99638 0.43378,1.62778 l -0.005,3.57436 0.19224,3.58719 c 0.0347,0.64602 -0.21783,1.21553 -0.59095,1.63003 -0.37312,0.41449 -0.8877,0.65064 -1.45621,0.66412 l -1.89544,0.0449 -3.72371,-0.0871 c -0.71418,-0.0167 -1.33967,-0.29516 -1.76611,-0.72285 -0.42645,-0.42772 -0.63125,-1.00933 -0.59791,-1.64408 l 0.18694,-3.55955 0.24784,-3.55389 c 0.0442,-0.63258 0.40851,-1.19922 0.86401,-1.60498 0.45549,-0.40575 1.03041,-0.64781 1.60861,-0.64427 z"
         id="path4779-0"
         inkscape:connector-curvature="0"
         sodipodi:nodetypes="scssscssscssscsss" />
      <path
         style="color:#000000;clip-rule:nonzero;display:inline;overflow:visible;opacity:1;isolation:auto;mix-blend-mode:normal;color-interpolation:sRGB;color-interpolation-filters:linearRGB;solid-color:#000000;solid-opacity:1;fill:#1d1d1b;fill-opacity:1;fill-rule:nonzero;stroke:none;stroke-width:5.04452;stroke-linecap:butt;stroke-linejoin:miter;stroke-miterlimit:4;stroke-dasharray:none;stroke-dashoffset:0;stroke-opacity:1;color-rendering:auto;image-rendering:auto;shape-rendering:auto;text-rendering:auto;enable-background:accumulate"
         d="m 190.18754,283.96947 3.20614,0.0418 1.87805,-0.0414 c 0.59904,-0.0134 1.09008,0.2702 1.41744,0.68799 0.32735,0.41778 0.43461,0.99638 0.43378,1.62778 l -0.005,3.57436 0.19224,3.58719 c 0.0347,0.64602 -0.21783,1.21553 -0.59095,1.63003 -0.37312,0.41449 -0.8877,0.65064 -1.45621,0.66412 l -1.89544,0.0449 -3.72371,-0.0871 c -0.71418,-0.0167 -1.33967,-0.29516 -1.76611,-0.72285 -0.42645,-0.42772 -0.63125,-1.00933 -0.59791,-1.64408 l 0.18694,-3.55955 0.24784,-3.55389 c 0.0442,-0.63258 0.40851,-1.19922 0.86401,-1.60498 0.45549,-0.40575 1.03041,-0.64781 1.60861,-0.64427 z"
         id="path4779"
         inkscape:connector-curvature="0"
         sodipodi:nodetypes="scssscssscssscsss" />
      <path
         style="color:#000000;clip-rule:nonzero;display:inline;overflow:visible;opacity:1;isolation:auto;mix-blend-mode:normal;color-interpolation:sRGB;color-interpolation-filters:linearRGB;solid-color:#000000;solid-opacity:1;fill:#ffffff;fill-opacity:1;fill-rule:nonzero;stroke:none;stroke-width:4.91421;stroke-linecap:butt;stroke-linejoin:miter;stroke-miterlimit:4;stroke-dasharray:none;stroke-dashoffset:0;stroke-opacity:1;color-rendering:auto;image-rendering:auto;shape-rendering:auto;text-rendering:auto;enable-background:accumulate"
         d="m 190.66532,285.17596 2.54889,0.034 1.22345,-0.0498 c 0.46477,-0.0189 0.8577,0.21417 1.13053,0.54736 0.27281,0.33316 0.39353,0.79497 0.40804,1.299 l 0.0819,2.84695 0.20483,2.8543 c 0.0366,0.50963 -0.14072,0.9684 -0.42781,1.29817 -0.28731,0.32976 -0.69573,0.50818 -1.15655,0.52639 l -1.25632,0.0495 -2.8832,-0.0627 c -0.54596,-0.0118 -1.03545,-0.23202 -1.37854,-0.57215 -0.34308,-0.34017 -0.52737,-0.80342 -0.51836,-1.30971 l 0.0503,-2.83551 0.0989,-2.83208 c 0.0174,-0.50439 0.27843,-0.95699 0.62305,-1.28074 0.34462,-0.32373 0.79077,-0.51959 1.25081,-0.51339 z"
         id="path4781"
         inkscape:connector-curvature="0"
         sodipodi:nodetypes="scssscssscssscsss" />
      <path
         style="color:#000000;clip-rule:nonzero;display:inline;overflow:visible;opacity:1;isolation:auto;mix-blend-mode:normal;color-interpolation:sRGB;color-interpolation-filters:linearRGB;solid-color:#000000;solid-opacity:1;fill:#1d1d1b;fill-opacity:1;fill-rule:nonzero;stroke:none;stroke-width:4.14001;stroke-linecap:butt;stroke-linejoin:miter;stroke-miterlimit:4;stroke-dasharray:none;stroke-dashoffset:0;stroke-opacity:1;color-rendering:auto;image-rendering:auto;shape-rendering:auto;text-rendering:auto;enable-background:accumulate"
         d="m 204.03611,282.75425 c -0.0734,0.9404 -0.6527,1.79119 -1.47606,2.55725 -0.82338,0.76605 -1.96052,1.44509 -3.27762,2.00131 -1.31708,0.5562 -2.80275,0.98394 -4.30764,1.2125 -1.50489,0.22855 -3.02954,0.25392 -4.5281,0.0732 -1.49856,-0.18072 -2.84063,-0.54034 -4.00565,-0.9847 -1.165,-0.44435 -2.14387,-0.97155 -2.91486,-1.55635 -0.771,-0.58478 -1.34105,-1.23256 -1.70094,-1.95556 -0.35991,-0.723 -0.5092,-1.52337 -0.37866,-2.38583 0.13057,-0.86245 0.53485,-1.70352 1.15894,-2.47627 0.62411,-0.77274 1.46347,-1.47624 2.44941,-2.06166 0.98594,-0.58544 2.11681,-1.05245 3.36518,-1.35858 1.24838,-0.30614 2.61559,-0.45167 4.11143,-0.40228 1.49582,0.0494 2.9885,0.28749 4.40575,0.68107 1.41725,0.39363 2.75295,0.94528 3.86626,1.61904 1.11331,0.67376 2.02817,1.45005 2.56223,2.32637 0.54706,0.89762 0.73287,1.90919 0.67033,2.71043 z"
         id="path4783"
         inkscape:connector-curvature="0"
         sodipodi:nodetypes="sssssssssssssssss" />
      <path
         style="color:#000000;clip-rule:nonzero;display:inline;overflow:visible;opacity:1;isolation:auto;mix-blend-mode:normal;color-interpolation:sRGB;color-interpolation-filters:linearRGB;solid-color:#000000;solid-opacity:1;fill:#e1d0cb;fill-opacity:1;fill-rule:nonzero;stroke:#958b7f;stroke-width:0.923966;stroke-linecap:butt;stroke-linejoin:miter;stroke-miterlimit:4;stroke-dasharray:none;stroke-dashoffset:0;stroke-opacity:1;color-rendering:auto;image-rendering:auto;shape-rendering:auto;text-rendering:auto;enable-background:accumulate"
         d="m 201.99849,282.49852 c -0.13563,0.68158 -0.59722,1.31814 -1.30604,1.88852 -0.70878,0.57034 -1.66393,1.07558 -2.74928,1.47871 -1.08534,0.40315 -2.29556,0.70122 -3.52948,0.8578 -1.23394,0.15658 -2.49293,0.17099 -3.73089,0.0404 -1.23792,-0.13055 -2.3435,-0.38901 -3.30288,-0.71946 -0.95936,-0.33046 -1.76879,-0.73228 -2.40382,-1.18067 -0.63503,-0.44836 -1.09721,-0.9451 -1.36968,-1.48609 -0.27248,-0.54102 -0.35618,-1.1278 -0.21423,-1.74928 0.14197,-0.62146 0.49818,-1.21847 1.02391,-1.76315 0.52574,-0.54475 1.21981,-1.03638 2.03738,-1.44336 0.81755,-0.40699 1.75762,-0.72902 2.79419,-0.93728 1.03655,-0.20829 2.16972,-0.30284 3.39658,-0.25895 1.22683,0.0439 2.43712,0.22149 3.58029,0.50679 1.1432,0.28536 2.21766,0.67907 3.12506,1.15661 0.90741,0.47755 1.64404,1.03905 2.11326,1.65189 0.46923,0.61282 0.67129,1.27585 0.53563,1.95745 z"
         id="path4785"
         inkscape:connector-curvature="0"
         sodipodi:nodetypes="sssssssssssssssss" />
      <path
         style="color:#000000;clip-rule:nonzero;display:inline;overflow:visible;opacity:1;isolation:auto;mix-blend-mode:normal;color-interpolation:sRGB;color-interpolation-filters:linearRGB;solid-color:#000000;solid-opacity:1;fill:#1d1d1b;fill-opacity:1;fill-rule:nonzero;stroke:none;stroke-width:4.14001;stroke-linecap:butt;stroke-linejoin:miter;stroke-miterlimit:4;stroke-dasharray:none;stroke-dashoffset:0;stroke-opacity:1;color-rendering:auto;image-rendering:auto;shape-rendering:auto;text-rendering:auto;enable-background:accumulate"
         d="m 198.74047,279.13595 c -0.18726,0.53528 -0.59444,1.01064 -1.15781,1.41182 -0.56336,0.40118 -1.28067,0.72897 -2.05897,0.98033 -0.77827,0.25136 -1.6143,0.42705 -2.43238,0.52056 -0.81809,0.0935 -1.61825,0.10443 -2.36802,0.0215 -0.74976,-0.0829 -1.38259,-0.25145 -1.91815,-0.48616 -0.53558,-0.23474 -0.97387,-0.53547 -1.31919,-0.88956 -0.34534,-0.35403 -0.59813,-0.76192 -0.74487,-1.21382 -0.14674,-0.45186 -0.18718,-0.94815 -0.0877,-1.47275 0.0995,-0.5246 0.33162,-1.02738 0.68275,-1.48177 0.35116,-0.45438 0.82102,-0.86004 1.38896,-1.18913 0.56794,-0.32907 1.23396,-0.5814 1.97366,-0.73128 0.73971,-0.14988 1.5532,-0.19716 2.41082,-0.12045 0.85762,0.0766 1.67818,0.26965 2.42011,0.55053 0.74192,0.28086 1.40525,0.64958 1.94226,1.07718 0.53702,0.42769 0.94765,0.9145 1.1776,1.42957 0.22997,0.51501 0.27816,1.05815 0.0909,1.59341 z"
         id="path4787"
         inkscape:connector-curvature="0"
         sodipodi:nodetypes="sssssssssssssssss" />
      <path
         sodipodi:nodetypes="sssssssssssssssss"
         inkscape:connector-curvature="0"
         id="path4810"
         d="m 185.42338,264.55631 c -0.0819,2.74869 -0.76825,5.40114 -1.93327,7.86217 -1.16501,2.46105 -2.80825,4.73134 -4.80162,6.69815 -1.99337,1.96682 -4.33637,3.63001 -6.90681,4.85469 -2.57043,1.22467 -5.36847,2.0101 -8.28072,2.2072 -2.91225,0.19708 -5.66426,-0.21557 -8.15343,-1.14765 -2.48918,-0.93206 -4.71525,-2.38317 -6.56863,-4.2433 -1.85339,-1.86012 -3.33373,-4.12908 -4.32921,-6.68159 -0.99547,-2.55252 -1.50564,-5.3886 -1.42197,-8.36989 0.0836,-2.98129 0.75256,-5.823 1.88721,-8.3881 1.13463,-2.5651 2.73455,-4.8532 4.68343,-6.74661 1.94888,-1.89347 4.24671,-3.39226 6.78463,-4.40282 2.53794,-1.01052 5.31659,-1.53379 8.23,-1.49331 2.91339,0.0404 5.68664,0.63772 8.20781,1.6638 2.52116,1.02609 4.78966,2.48175 6.6849,4.26392 1.89523,1.78217 3.41678,3.89149 4.44298,6.23962 1.02623,2.34817 1.55666,4.93501 1.4747,7.68372 z"
         style="color:#000000;clip-rule:nonzero;display:inline;overflow:visible;opacity:1;isolation:auto;mix-blend-mode:normal;color-interpolation:sRGB;color-interpolation-filters:linearRGB;solid-color:#000000;solid-opacity:1;fill:#1d1d1b;fill-opacity:1;fill-rule:nonzero;stroke:none;stroke-width:0.436496;stroke-linecap:butt;stroke-linejoin:miter;stroke-miterlimit:4;stroke-dasharray:none;stroke-dashoffset:0;stroke-opacity:1;color-rendering:auto;image-rendering:auto;shape-rendering:auto;text-rendering:auto;enable-background:accumulate" />
      <path
         sodipodi:nodetypes="sssssssssssssssss"
         inkscape:connector-curvature="0"
         id="path4813"
         d="m 182.46348,264.05472 c 1.7e-4,2.38837 -0.51821,4.73181 -1.46287,6.9337 -0.94466,2.20191 -2.31634,4.26229 -4.01676,6.05743 -1.70045,1.79512 -3.72957,3.3234 -5.9771,4.44667 -2.24756,1.12328 -4.71251,1.84069 -7.28164,2.02186 -2.56913,0.18116 -4.99868,-0.19118 -7.19257,-1.01912 -2.1939,-0.82796 -4.15291,-2.11128 -5.78468,-3.74429 -1.63182,-1.63298 -2.93653,-3.61578 -3.82018,-5.83437 -0.88363,-2.21859 -1.34597,-4.67296 -1.29272,-7.24014 0.0534,-2.56719 0.61685,-5.00165 1.58593,-7.19248 0.9691,-2.19082 2.34331,-4.13791 4.02015,-5.75127 1.67691,-1.61338 3.65617,-2.89333 5.84282,-3.77024 2.18661,-0.8769 4.58104,-1.35197 7.09399,-1.36487 2.51293,-0.0128 4.90731,0.43511 7.08977,1.24481 2.18247,0.80961 4.1526,1.9818 5.81049,3.44279 1.65787,1.46099 3.00334,3.21141 3.93506,5.19136 0.93173,1.98 1.45004,4.18975 1.45031,6.57816 z"
         style="color:#000000;clip-rule:nonzero;display:inline;overflow:visible;opacity:1;isolation:auto;mix-blend-mode:normal;color-interpolation:sRGB;color-interpolation-filters:linearRGB;solid-color:#000000;solid-opacity:1;fill:#dcdcdc;fill-opacity:1;fill-rule:nonzero;stroke:#dcdcdc;stroke-width:1.70972;stroke-linecap:butt;stroke-linejoin:miter;stroke-miterlimit:4;stroke-dasharray:none;stroke-dashoffset:0;stroke-opacity:1;color-rendering:auto;image-rendering:auto;shape-rendering:auto;text-rendering:auto;enable-background:accumulate" />
      <path
         sodipodi:nodetypes="sssssssssssssssss"
         inkscape:connector-curvature="0"
         id="path4813-3"
         d="m 183.47888,263.3827 c 1.8e-4,2.40927 -0.52047,4.77318 -1.46928,6.99433 -0.94882,2.22117 -2.32652,4.29957 -4.03441,6.11042 -1.70789,1.81083 -3.74593,3.35245 -6.00334,4.48558 -2.25739,1.13307 -4.73317,1.85676 -7.31356,2.03952 -2.58042,0.18275 -5.02065,-0.19283 -7.22415,-1.02804 -2.20354,-0.83519 -4.17113,-2.12974 -5.81007,-3.77703 -1.63899,-1.64728 -2.94942,-3.64742 -3.83694,-5.8854 -0.88752,-2.23799 -1.35189,-4.71383 -1.29838,-7.30348 0.0536,-2.58963 0.61954,-5.04538 1.59287,-7.25535 0.97337,-2.20998 2.35361,-4.1741 4.03779,-5.80158 1.68426,-1.62749 3.67223,-2.91862 5.86846,-3.80321 2.19621,-0.88456 4.60116,-1.3638 7.12511,-1.3768 2.52397,-0.013 4.92887,0.43892 7.1209,1.25569 2.19205,0.81669 4.17083,1.99913 5.83599,3.47291 1.66515,1.47376 3.01653,3.23948 3.95235,5.23674 0.9358,1.99733 1.45638,4.22642 1.45666,6.6357 z"
         style="color:#000000;clip-rule:nonzero;display:inline;overflow:visible;opacity:1;isolation:auto;mix-blend-mode:normal;color-interpolation:sRGB;color-interpolation-filters:linearRGB;solid-color:#000000;solid-opacity:1;fill:#ffffff;fill-opacity:1;fill-rule:nonzero;stroke:none;stroke-width:1.72094;stroke-linecap:butt;stroke-linejoin:miter;stroke-miterlimit:4;stroke-dasharray:none;stroke-dashoffset:0;stroke-opacity:1;color-rendering:auto;image-rendering:auto;shape-rendering:auto;text-rendering:auto;enable-background:accumulate" />
      <circle
         r="5.3971901"
         style="color:#000000;clip-rule:nonzero;display:inline;overflow:visible;opacity:1;isolation:auto;mix-blend-mode:normal;color-interpolation:sRGB;color-interpolation-filters:linearRGB;solid-color:#000000;solid-opacity:1;fill:#1d1d1b;fill-opacity:1;fill-rule:nonzero;stroke:none;stroke-width:0.410934;stroke-linecap:butt;stroke-linejoin:miter;stroke-miterlimit:4;stroke-dasharray:none;stroke-dashoffset:0;stroke-opacity:1;color-rendering:auto;image-rendering:auto;shape-rendering:auto;text-rendering:auto;enable-background:accumulate"
         id="circle4815"
         cx="160.56808"
         cy="265.17239" />
      <circle
         r="1.7592899"
         cy="264.0614"
         cx="159.42461"
         id="circle4817"
         style="color:#000000;clip-rule:nonzero;display:inline;overflow:visible;opacity:1;isolation:auto;mix-blend-mode:normal;color-interpolation:sRGB;color-interpolation-filters:linearRGB;solid-color:#000000;solid-opacity:1;fill:#ffffff;fill-opacity:1;fill-rule:nonzero;stroke:none;stroke-width:0.272364;stroke-linecap:butt;stroke-linejoin:miter;stroke-miterlimit:4;stroke-dasharray:none;stroke-dashoffset:0;stroke-opacity:1;color-rendering:auto;image-rendering:auto;shape-rendering:auto;text-rendering:auto;enable-background:accumulate" />
      <path
         style="color:#000000;font-style:normal;font-variant:normal;font-weight:normal;font-stretch:normal;font-size:medium;line-height:normal;font-family:sans-serif;font-variant-ligatures:normal;font-variant-position:normal;font-variant-caps:normal;font-variant-numeric:normal;font-variant-alternates:normal;font-feature-settings:normal;text-indent:0;text-align:start;text-decoration:none;text-decoration-line:none;text-decoration-style:solid;text-decoration-color:#000000;letter-spacing:normal;word-spacing:normal;text-transform:none;writing-mode:lr-tb;direction:ltr;text-orientation:mixed;dominant-baseline:auto;baseline-shift:baseline;text-anchor:start;white-space:normal;shape-padding:0;clip-rule:nonzero;display:inline;overflow:visible;opacity:1;isolation:auto;mix-blend-mode:normal;color-interpolation:sRGB;color-interpolation-filters:linearRGB;solid-color:#000000;solid-opacity:1;vector-effect:none;fill:#9a8878;fill-opacity:1;fill-rule:evenodd;stroke:#9a8878;stroke-width:1.2;stroke-linecap:round;stroke-linejoin:miter;stroke-miterlimit:4;stroke-dasharray:none;stroke-dashoffset:0;stroke-opacity:1;color-rendering:auto;image-rendering:auto;shape-rendering:auto;text-rendering:auto;enable-background:accumulate"
         d="m 236.47505,238.27429 c 0.42777,0.16132 0.81569,0.48362 1.05744,1.05385 0.1747,0.41208 0.19665,0.91288 0.0819,1.52446 -0.0762,0.40643 -0.21288,0.86176 -0.40517,1.37251 -0.0684,0.18154 -0.49182,0.55351 -0.76563,0.72997 -0.43893,0.28282 -0.98846,0.60445 -1.04788,0.52529 -0.0415,-0.0552 0.68051,-0.32237 1.05918,-0.70954 0.31582,-0.3229 0.45701,-0.68316 0.57251,-1.25251 0.1727,-0.85132 0.0987,-1.3977 -0.0807,-1.82089 -0.26214,-0.61832 -0.70463,-0.89338 -1.19588,-0.9845 -0.49124,-0.0912 -1.01976,0.0155 -1.4016,0.14125 -0.81444,0.2684 -1.89762,0.73463 -3.08126,1.87128 -0.21941,0.21071 -0.36717,0.0865 -0.14534,-0.11822 1.24018,-1.14466 2.31875,-1.91816 3.27651,-2.24017 0.44187,-0.14856 1.04884,-0.2878 1.63876,-0.20334 0.14748,0.0212 0.29454,0.0568 0.43713,0.11056 z"
         id="path4870-8"
         inkscape:connector-curvature="0"
         sodipodi:nodetypes="csssssssssssssssc" />
      <path
         style="color:#000000;font-style:normal;font-variant:normal;font-weight:normal;font-stretch:normal;font-size:medium;line-height:normal;font-family:sans-serif;font-variant-ligatures:normal;font-variant-position:normal;font-variant-caps:normal;font-variant-numeric:normal;font-variant-alternates:normal;font-feature-settings:normal;text-indent:0;text-align:start;text-decoration:none;text-decoration-line:none;text-decoration-style:solid;text-decoration-color:#000000;letter-spacing:normal;word-spacing:normal;text-transform:none;writing-mode:lr-tb;direction:ltr;text-orientation:mixed;dominant-baseline:auto;baseline-shift:baseline;text-anchor:start;white-space:normal;shape-padding:0;clip-rule:nonzero;display:inline;overflow:visible;opacity:1;isolation:auto;mix-blend-mode:normal;color-interpolation:sRGB;color-interpolation-filters:linearRGB;solid-color:#000000;solid-opacity:1;vector-effect:none;fill:#1d1d1b;fill-opacity:1;fill-rule:evenodd;stroke:#000000;stroke-width:1.18915;stroke-linecap:round;stroke-linejoin:miter;stroke-miterlimit:4;stroke-dasharray:none;stroke-dashoffset:0;stroke-opacity:1;color-rendering:auto;image-rendering:auto;shape-rendering:auto;text-rendering:auto;enable-background:accumulate"
         d="m 235.15867,239.54526 c 0.4239,0.15986 0.80831,0.47925 1.04787,1.04432 0.17312,0.40835 0.19488,0.90462 0.0812,1.51067 -0.0755,0.40275 -0.21095,0.85396 -0.4015,1.36009 -0.0678,0.1799 -0.48737,0.54851 -0.75871,0.72337 -0.43496,0.28026 -0.97951,0.59898 -1.0384,0.52054 -0.0411,-0.0547 0.67436,-0.31946 1.0496,-0.70312 0.31296,-0.31998 0.45288,-0.67698 0.56733,-1.24118 0.17114,-0.84362 0.0978,-1.38506 -0.08,-1.80442 -0.25977,-0.61273 -0.69825,-0.8853 -1.18506,-0.9756 -0.4868,-0.0904 -1.01054,0.0154 -1.38892,0.13997 -0.80707,0.26598 -1.88046,0.72799 -3.05339,1.85436 -0.21742,0.2088 -0.36385,0.0857 -0.14402,-0.11715 1.22896,-1.13431 2.29777,-1.90081 3.24687,-2.21991 0.43787,-0.14722 1.03935,-0.2852 1.62393,-0.2015 0.14615,0.021 0.29188,0.0563 0.43318,0.10956 z"
         id="path4870"
         inkscape:connector-curvature="0"
         sodipodi:nodetypes="csssssssssssssssc" />
      <path
         sodipodi:nodetypes="sssssssssssssssss"
         inkscape:connector-curvature="0"
         id="path4810-3"
         d="m 200.35459,264.13014 c 0.0819,2.74868 0.76824,5.40115 1.93326,7.86218 1.16502,2.46104 2.80825,4.73132 4.80162,6.69814 1.99337,1.96682 4.33637,3.63001 6.90681,4.85468 2.57043,1.22469 5.36847,2.01012 8.28072,2.2072 2.91226,0.19709 5.66426,-0.21556 8.15344,-1.14764 2.48917,-0.93207 4.71524,-2.38316 6.56863,-4.2433 1.85338,-1.86013 3.33373,-4.12908 4.3292,-6.6816 0.99547,-2.55251 1.50564,-5.38859 1.42198,-8.36988 -0.0836,-2.98128 -0.75256,-5.82299 -1.88722,-8.3881 -1.13463,-2.56509 -2.73454,-4.85319 -4.68342,-6.74663 -1.94889,-1.89345 -4.24671,-3.39224 -6.78464,-4.4028 -2.53793,-1.01052 -5.31658,-1.53378 -8.22999,-1.4933 -2.9134,0.0404 -5.68664,0.6377 -8.20781,1.6638 -2.52117,1.02608 -4.78967,2.48174 -6.68491,4.26391 -1.89522,1.78217 -3.41678,3.89149 -4.44298,6.23962 -1.02622,2.34818 -1.55665,4.93501 -1.47469,7.68372 z"
         style="color:#000000;clip-rule:nonzero;display:inline;overflow:visible;opacity:1;isolation:auto;mix-blend-mode:normal;color-interpolation:sRGB;color-interpolation-filters:linearRGB;solid-color:#000000;solid-opacity:1;fill:#1d1d1b;fill-opacity:1;fill-rule:nonzero;stroke:none;stroke-width:0.436496;stroke-linecap:butt;stroke-linejoin:miter;stroke-miterlimit:4;stroke-dasharray:none;stroke-dashoffset:0;stroke-opacity:1;color-rendering:auto;image-rendering:auto;shape-rendering:auto;text-rendering:auto;enable-background:accumulate" />
      <path
         sodipodi:nodetypes="sssssssssssssssss"
         inkscape:connector-curvature="0"
         id="path4813-2"
         d="m 203.07273,263.60682 c -1.5e-4,2.41985 0.52504,4.79416 1.48214,7.02503 0.9571,2.23092 2.34684,4.31844 4.06966,6.1372 1.72284,1.81879 3.7787,3.36718 6.05583,4.50526 2.27715,1.13808 4.77458,1.86494 7.37754,2.0485 2.60297,0.18354 5.06453,-0.19371 7.28731,-1.03256 2.22281,-0.83886 4.20759,-2.13908 5.86087,-3.79359 1.65332,-1.6545 2.97521,-3.66342 3.8705,-5.91122 0.89527,-2.24782 1.36369,-4.73453 1.30975,-7.33552 -0.054,-2.60099 -0.62498,-5.06752 -1.60682,-7.2872 -0.98186,-2.21968 -2.37417,-4.19242 -4.0731,-5.82702 -1.699,-1.63464 -3.70433,-2.93145 -5.91977,-3.81991 -2.21542,-0.88844 -4.64138,-1.36978 -7.18743,-1.38282 -2.54603,-0.013 -4.97195,0.44081 -7.18316,1.26119 -2.21121,0.82028 -4.2073,2.00791 -5.88701,3.48814 -1.67971,1.48023 -3.04291,3.2537 -3.9869,5.25972 -0.94399,2.00608 -1.46914,4.24496 -1.46941,6.6648 z"
         style="color:#000000;clip-rule:nonzero;display:inline;overflow:visible;opacity:1;isolation:auto;mix-blend-mode:normal;color-interpolation:sRGB;color-interpolation-filters:linearRGB;solid-color:#000000;solid-opacity:1;fill:#dcdcdc;fill-opacity:1;fill-rule:nonzero;stroke:#dcdcdc;stroke-width:1.10495;stroke-linecap:butt;stroke-linejoin:miter;stroke-miterlimit:4;stroke-dasharray:none;stroke-dashoffset:0;stroke-opacity:1;color-rendering:auto;image-rendering:auto;shape-rendering:auto;text-rendering:auto;enable-background:accumulate" />
      <path
         sodipodi:nodetypes="sssssssssssssssss"
         inkscape:connector-curvature="0"
         id="path4813-2-7"
         d="m 204.08815,262.70835 c -1.6e-4,2.41703 0.51319,4.7886 1.44869,7.01689 0.93553,2.22829 2.29389,4.31339 3.97786,6.13004 1.68395,1.81669 3.69342,3.36329 5.91921,4.50007 2.22579,1.13672 4.66683,1.86277 7.21108,2.04608 2.54423,0.18335 4.95022,-0.19344 7.12291,-1.03131 2.17265,-0.83791 4.11265,-2.13663 5.72864,-3.78923 1.616,-1.65258 2.90808,-3.65914 3.78317,-5.90437 0.87506,-2.24521 1.33293,-4.729 1.28019,-7.327 -0.0527,-2.59795 -0.61085,-5.06163 -1.57056,-7.27874 -0.95968,-2.21708 -2.3206,-4.18759 -3.98122,-5.82027 -1.66069,-1.63272 -3.62073,-2.92803 -5.78626,-3.81551 -2.16539,-0.8874 -4.53662,-1.36818 -7.02528,-1.38117 -2.48854,-0.013 -4.85972,0.4403 -7.02101,1.25973 -2.16134,0.81933 -4.11239,2.00557 -5.75421,3.48405 -1.64183,1.47852 -2.97426,3.24991 -3.89696,5.25368 -0.92271,2.00371 -1.43599,4.24001 -1.43625,6.65706 z"
         style="color:#000000;clip-rule:nonzero;display:inline;overflow:visible;opacity:1;isolation:auto;mix-blend-mode:normal;color-interpolation:sRGB;color-interpolation-filters:linearRGB;solid-color:#000000;solid-opacity:1;fill:#ffffff;fill-opacity:1;fill-rule:nonzero;stroke:none;stroke-width:1.09179;stroke-linecap:butt;stroke-linejoin:miter;stroke-miterlimit:4;stroke-dasharray:none;stroke-dashoffset:0;stroke-opacity:1;color-rendering:auto;image-rendering:auto;shape-rendering:auto;text-rendering:auto;enable-background:accumulate" />
      <circle
         r="5.3971901"
         transform="scale(-1,1)"
         style="color:#000000;clip-rule:nonzero;display:inline;overflow:visible;opacity:1;isolation:auto;mix-blend-mode:normal;color-interpolation:sRGB;color-interpolation-filters:linearRGB;solid-color:#000000;solid-opacity:1;fill:#1d1d1b;fill-opacity:1;fill-rule:nonzero;stroke:none;stroke-width:0.410934;stroke-linecap:butt;stroke-linejoin:miter;stroke-miterlimit:4;stroke-dasharray:none;stroke-dashoffset:0;stroke-opacity:1;color-rendering:auto;image-rendering:auto;shape-rendering:auto;text-rendering:auto;enable-background:accumulate"
         id="circle4815-0"
         cx="-223.09193"
         cy="263.81433" />
      <circle
         r="1.7592899"
         transform="scale(-1,1)"
         cy="262.61887"
         cx="-222.28786"
         id="circle4817-6"
         style="color:#000000;clip-rule:nonzero;display:inline;overflow:visible;opacity:1;isolation:auto;mix-blend-mode:normal;color-interpolation:sRGB;color-interpolation-filters:linearRGB;solid-color:#000000;solid-opacity:1;fill:#ffffff;fill-opacity:1;fill-rule:nonzero;stroke:none;stroke-width:0.272364;stroke-linecap:butt;stroke-linejoin:miter;stroke-miterlimit:4;stroke-dasharray:none;stroke-dashoffset:0;stroke-opacity:1;color-rendering:auto;image-rendering:auto;shape-rendering:auto;text-rendering:auto;enable-background:accumulate" />
      <path
         inkscape:connector-curvature="0"
         id="path3105"
         d="m 165.12123,359.19074 0.0484,-27.77787 c 0,0 4.79396,-28.06164 27.85258,-27.49209 23.05865,0.5696 26.78384,25.35537 26.78384,25.35537 l 1.87326,30.53285 -18.42975,25.44885 z"
         style="fill:#e0d0ca;fill-opacity:1;stroke:none;stroke-width:0.294401px;stroke-linecap:butt;stroke-linejoin:miter;stroke-opacity:1" />
      <path
         inkscape:connector-curvature="0"
         id="path2847"
         d="m 192.49351,287.62899 -0.40791,7.10804"
         style="fill:#1d1d1b;fill-opacity:1;stroke:#1d1d1b;stroke-width:1.52305;stroke-linecap:butt;stroke-linejoin:miter;stroke-miterlimit:4;stroke-dasharray:none;stroke-opacity:1" />
      <path
         style="color:#000000;clip-rule:nonzero;display:inline;overflow:visible;opacity:1;isolation:auto;mix-blend-mode:normal;color-interpolation:sRGB;color-interpolation-filters:linearRGB;solid-color:#000000;solid-opacity:1;fill:#595755;fill-opacity:1;fill-rule:nonzero;stroke:none;stroke-width:2.92399;stroke-linecap:butt;stroke-linejoin:miter;stroke-miterlimit:4;stroke-dasharray:none;stroke-dashoffset:0;stroke-opacity:1;color-rendering:auto;image-rendering:auto;shape-rendering:auto;text-rendering:auto;enable-background:accumulate"
         d="m 196.89226,278.87408 c -0.13224,0.37805 -0.41984,0.71379 -0.81772,0.99711 -0.39789,0.28336 -0.90452,0.51488 -1.45422,0.6924 -0.54965,0.17752 -1.14012,0.30161 -1.71793,0.36766 -0.57778,0.066 -1.14289,0.0737 -1.67245,0.0153 -0.52955,-0.0587 -0.97651,-0.1776 -1.35476,-0.34335 -0.37825,-0.16579 -0.68781,-0.3782 -0.93171,-0.62827 -0.24391,-0.25005 -0.42244,-0.53814 -0.52609,-0.85729 -0.10362,-0.31915 -0.13218,-0.66966 -0.0619,-1.04017 0.0703,-0.37052 0.23421,-0.72563 0.48221,-1.04655 0.24803,-0.32092 0.57988,-0.60743 0.981,-0.83984 0.40111,-0.23242 0.87153,-0.41063 1.39395,-0.51649 0.52244,-0.10587 1.09698,-0.13924 1.7027,-0.0851 0.60571,0.0542 1.18527,0.19043 1.70926,0.38884 0.52402,0.19837 0.99249,0.45877 1.37178,0.76077 0.37927,0.30207 0.66929,0.64589 0.83171,1.00968 0.16241,0.36376 0.19646,0.74732 0.0641,1.12539 z"
         id="path4787-3"
         inkscape:connector-curvature="0"
         sodipodi:nodetypes="sssssssssssssssss" />
      <path
         inkscape:connector-curvature="0"
         id="path4301"
         d="m 189.92039,294.61917 c 3.60814,0.15033 3.60814,0.15033 3.60814,0.15033 l -1.35305,0.65147 -2.3052,-0.26726 z"
         style="fill:#1d1d1b;fill-opacity:1;stroke:#1d1d1b;stroke-width:0.264583px;stroke-linecap:butt;stroke-linejoin:miter;stroke-opacity:1" />
    </g>
  </g>
</svg>
